<svg width="53" height="60" fill="none" xmlns="http://www.w3.org/2000/svg"><path d="M26.421 12.59v45.767S.66 61.05.66 48.384c0 0 6.92.88 5.503-4.94-1.796-7.38-.792-19.33 0-25.86.79-6.533 20.258-4.994 20.258-4.994z" fill="#330C00"/><path d="M26.338 12.59v45.767S52.1 61.05 52.1 48.384c0 0-6.92.88-5.503-4.94 1.796-7.38.792-19.33 0-25.86-.791-6.533-20.259-4.994-20.259-4.994z" fill="#330C00"/><path d="M26.871 51.55v-6.667s10.495-.321 10.495 6.085l-10.495.583zm-.899 0v-6.667s-10.495-.321-10.495 6.085l10.495.583z" fill="#00B497"/><path d="M30.59 44.883h-8.337V54.3h8.337v-9.417z" fill="#FDCC9B"/><path d="M22.253 45.992s3.507 2.252 8.337 1.73v-2.84h-8.337v1.11zM10.23 34.96c2.247 0 4.069-2.095 4.069-4.68 0-2.585-1.822-4.68-4.068-4.68-2.247 0-4.068 2.095-4.068 4.68 0 2.585 1.82 4.68 4.068 4.68zm32.382 0c2.246 0 4.068-2.095 4.068-4.68 0-2.585-1.822-4.68-4.068-4.68-2.247 0-4.069 2.095-4.069 4.68 0 2.585 1.822 4.68 4.069 4.68z" fill="#FCBC85"/><path d="M42.595 21.34c0-6.895-5.002-11.94-16.173-11.94-11.173 0-16.175 5.045-16.175 11.94S9.08 46.396 26.422 46.396c17.34 0 16.173-18.161 16.173-25.056z" fill="#FDCC9B"/><path d="M18.543 31.093c.967 0 1.751-.866 1.751-1.934s-.784-1.934-1.75-1.934c-.968 0-1.751.866-1.751 1.934s.783 1.934 1.75 1.934z" fill="#3B2519"/><path d="M17.78 28.834a.526.526 0 0 0 .523-.528.526.526 0 0 0-.523-.528.526.526 0 0 0-.524.528c0 .291.235.528.524.528z" fill="#fff"/><path d="M15.743 24.99c.828.32 2.157-1.087 5.2.137.555.223.886-1.908-2.376-1.908-2.824 0-3.325 1.577-2.824 1.77z" fill="#684B37"/><path d="M34.515 31.093c.967 0 1.751-.866 1.751-1.934s-.784-1.934-1.75-1.934c-.968 0-1.751.866-1.751 1.934s.783 1.934 1.75 1.934z" fill="#3B2519"/><path d="M33.752 28.834c.29 0 .524-.237.524-.528a.526.526 0 0 0-.524-.529.526.526 0 0 0-.524.529c0 .291.235.528.524.528z" fill="#fff"/><path d="M37.1 24.99c-.828.32-2.157-1.087-5.2.136-.555.224-.886-1.907 2.376-1.907 2.824 0 3.324 1.577 2.824 1.77z" fill="#684B37"/><path d="M26.421 35.962c-1.73 0-2.772-1.304-2.772-.673 0 .63.5 1.829 2.772 1.829s2.772-1.198 2.772-1.829c0-.63-1.042.673-2.772.673zm0 5.798c-.598 0-.959-.45-.959-.233 0 .219.173.633.96.633.785 0 .958-.414.958-.633 0-.218-.36.233-.959.233z" fill="#FCBC85"/><path d="M26.422 40.153c-2.743 0-4.395-1.127-4.395-.841 0 .285.793 1.408 4.395 1.408 3.6 0 4.394-1.123 4.394-1.408 0-.285-1.652.84-4.394.84z" fill="#F7945E"/><path d="M16.292 37.736a2.386 2.386 0 0 0 2.376-2.396 2.386 2.386 0 0 0-2.376-2.397 2.386 2.386 0 0 0-2.376 2.397 2.386 2.386 0 0 0 2.376 2.396zm20.551 0a2.386 2.386 0 0 0 2.376-2.396 2.386 2.386 0 0 0-2.376-2.397 2.386 2.386 0 0 0-2.376 2.397 2.386 2.386 0 0 0 2.376 2.396z" fill="#F9AA8D"/><path d="M26.421 48.666V59.26H8.164c0-4.288 8.67-10.594 18.257-10.594zm0 0V59.26H44.68c0-4.288-8.67-10.594-18.258-10.594z" fill="#8FD6E7"/><path d="M26.421 58.78V48.666c-2.67 0-5.261.501-7.622 1.3l7.622 8.815z" fill="#F6B1CF"/><path d="M26.421 58.78V48.666c2.671 0 5.262.501 7.623 1.3L26.42 58.78z" fill="#F6B1CF"/><path d="M26.421 48.666a23.41 23.41 0 0 0-5.644.717c.257 1.573 1.31 4.802 5.644 4.802s5.388-3.229 5.644-4.802a23.392 23.392 0 0 0-5.644-.717z" fill="#F283B4"/><path d="M22.253 49.033s0 3.786 4.168 3.786c4.169 0 4.169-3.786 4.169-3.786s-4.325-1.588-8.337 0z" fill="#FDCC9B"/><path d="M20.042 49.456c.124-.818-4.856-.215-4.815 2.094.041 2.31 5.502 4.086 7.003 4.927 1.5.84 4.169 2.783 4.169 2.783s.5-1.95-1.835-3.456c-2.334-1.505-4.69-5.255-4.522-6.348z" fill="#3ABDAA"/><path d="M32.74 49.456c-.124-.818 4.856-.215 4.815 2.094-.04 2.31-5.502 4.086-7.003 4.927-1.5.84-4.169 2.783-4.169 2.783s-.5-1.95 1.835-3.456c2.334-1.505 4.69-5.255 4.522-6.348z" fill="#3ABDAA"/><path d="M26.421.143c-18.758 0-21.26 16.518-21.26 28.69 0 12.173 6.25 19.242 11.131 21.217 0 0-7.796-13.933-3.96-26.831 3.137-10.553 14.09-7.437 14.09-7.437s10.951-3.116 14.09 7.437c3.834 12.898-3.961 26.83-3.961 26.83 4.882-1.974 11.13-9.043 11.13-21.216 0-12.172-2.5-28.69-21.26-28.69z" fill="#401900"/><path d="M32.765 18.697s-7.041 3.56-13.259 2.845c-6.217-.715-8.605 5.786-8.226 10.088l-2.075-9.576 3.752-7.575 10.692-5.55 10.103.471 4.791 4.196 4.069 5.1 2.86 3.358-1.376 10.334-2.913 3.532s2.636-13.258-8.418-17.223z" fill="#401900"/></svg>