<svg width="46" height="61" fill="none" xmlns="http://www.w3.org/2000/svg"><path d="M27.617 45.385h-9.234v9.986h9.234v-9.986z" fill="#FDCC9B"/><path d="M18.383 46.56s3.884 2.39 9.234 1.836v-3.012h-9.234v1.177zM5.069 34.863c2.488 0 4.505-2.223 4.505-4.964 0-2.742-2.017-4.964-4.505-4.964S.563 27.157.563 29.899c0 2.741 2.018 4.964 4.506 4.964zm35.862 0c2.489 0 4.506-2.223 4.506-4.964 0-2.742-2.017-4.964-4.506-4.964-2.488 0-4.505 2.222-4.505 4.964 0 2.741 2.017 4.964 4.505 4.964z" fill="#FCBC85"/><path d="M40.913 20.417c0-7.311-5.54-12.661-17.913-12.661-12.373 0-17.913 5.35-17.913 12.661C5.087 27.73 3.794 46.99 23 46.99s17.913-19.26 17.913-26.572z" fill="#FDCC9B"/><path d="M14.275 30.761c1.07 0 1.939-.918 1.939-2.05 0-1.134-.868-2.052-1.939-2.052-1.071 0-1.94.918-1.94 2.051s.869 2.051 1.94 2.051z" fill="#3B2519"/><path d="M13.43 28.364c.32 0 .58-.25.58-.56a.57.57 0 0 0-.58-.56.57.57 0 0 0-.58.56c0 .31.26.56.58.56z" fill="#fff"/><path d="M11.173 23.628c.917.443 2.39-1.505 5.76.19.614.308.98-2.642-2.632-2.642-3.128 0-3.682 2.184-3.128 2.452z" fill="#51362A"/><path d="M31.964 30.761c1.071 0 1.94-.918 1.94-2.05 0-1.134-.869-2.052-1.94-2.052-1.07 0-1.939.918-1.939 2.051s.869 2.051 1.94 2.051z" fill="#3B2519"/><path d="M31.119 28.364c.32 0 .58-.25.58-.56a.57.57 0 0 0-.58-.56.57.57 0 0 0-.58.56c0 .31.26.56.58.56z" fill="#fff"/><path d="M34.827 23.628c-.917.443-2.39-1.505-5.76.19-.614.308-.98-2.642 2.632-2.642 3.128 0 3.682 2.184 3.128 2.452z" fill="#51362A"/><path d="M23 35.924c-1.916 0-3.07-1.382-3.07-.713 0 .668.554 1.94 3.07 1.94 2.517 0 3.07-1.272 3.07-1.94 0-.67-1.154.713-3.07.713zm0 6.149c-.663 0-1.062-.478-1.062-.247 0 .231.192.67 1.062.67.87 0 1.062-.439 1.062-.67 0-.231-.4.247-1.062.247z" fill="#FCBC85"/><path d="M23 40.369c-3.037 0-4.867-1.194-4.867-.892 0 .303.879 1.494 4.867 1.494s4.867-1.191 4.867-1.494c0-.302-1.83.892-4.867.892z" fill="#F7945E"/><path d="M23 49.397v11.235H.563c0-4.548 11.819-11.235 22.437-11.235z" fill="#F7941E"/><path d="M23 49.397v11.235h22.437c0-4.548-11.818-11.235-22.437-11.235z" fill="#F7941E"/><path d="M23 49.397c-2.258 0-4.57.305-6.813.825.016.02 2.487 3.098 6.813 3.098 4.007 0 6.67-2.637 7.056-3.042-2.317-.556-4.715-.881-7.056-.881z" fill="#F36C21"/><path d="M18.383 49.786s1.35 1.617 4.617 1.617c3.266 0 4.617-1.617 4.617-1.617s-4.79-1.684-9.234 0z" fill="#FDCC9B"/><path d="M37.727 6.196S31.08-1.963 17.262 1.113C3.444 4.19 2.409 12.214 2.825 20.023 3.24 27.83 4.348 32.41 5.659 31.844c1.31-.567.628-5.72.767-6.91.138-1.19 1.385-6.568 9.788-5.766 8.404.803 15.485-2.14 15.485-2.14s2.851 3.48 4.727 4.147c3.749 1.332 2.52 10.213 3.988 10.213 1.469 0 8.67-20.512-2.687-25.193z" fill="#51362A"/></svg>