<svg width="42" height="42" fill="none" xmlns="http://www.w3.org/2000/svg"><path d="M21.004 42c11.596 0 20.997-9.402 20.997-21S32.6 0 21.004 0 .008 9.402.008 21s9.4 21 20.996 21z" fill="#393A59"/><path d="M15.93 8.423a2.486 2.486 0 0 1-2.485 2.486H2.585a21.066 21.066 0 0 1 4.378-5.522c.426.345.968.55 1.558.55h4.924c.686 0 1.308.278 1.758.728.45.45.727 1.072.727 1.758z" fill="#6A6577"/><path d="M34.217 25.223l.472.958a.24.24 0 0 0 .18.131l1.058.154a.24.24 0 0 1 .133.41l-.765.745a.24.24 0 0 0-.069.212l.18 1.053a.24.24 0 0 1-.348.253l-.945-.497a.24.24 0 0 0-.224 0l-.945.497a.24.24 0 0 1-.348-.253l.18-1.053a.24.24 0 0 0-.069-.212l-.764-.746a.24.24 0 0 1 .133-.41l1.057-.153a.24.24 0 0 0 .18-.131l.473-.958a.24.24 0 0 1 .43 0zM14.765 14.418l.472.958a.24.24 0 0 0 .181.131l1.057.154a.24.24 0 0 1 .133.41l-.765.745a.24.24 0 0 0-.069.212l.18 1.053a.24.24 0 0 1-.347.253l-.946-.497a.24.24 0 0 0-.223 0l-.946.497a.24.24 0 0 1-.348-.253l.18-1.053a.24.24 0 0 0-.068-.212l-.765-.746a.24.24 0 0 1 .133-.41l1.057-.153a.24.24 0 0 0 .18-.131l.473-.958a.24.24 0 0 1 .43 0z" fill="#F9D368"/><path d="M19.155 21.704a2.486 2.486 0 0 1-2.485 2.486H6.185a2.486 2.486 0 0 1-2.486-2.486c0-.687-.278-1.308-.728-1.758a2.479 2.479 0 0 0-1.757-.728H.083c.144-1.725.498-3.39 1.034-4.971h9.695a2.486 2.486 0 0 1 2.486 2.485 2.486 2.486 0 0 0 2.485 2.486h.887a2.486 2.486 0 0 1 2.485 2.486zm22.791-2.224H31.485a2.486 2.486 0 0 1-2.486-2.485c0-.687-.278-1.308-.728-1.758a2.479 2.479 0 0 0-1.757-.728h-1.543a2.486 2.486 0 0 1 0-4.971h11.141a2.486 2.486 0 0 1 2.486 2.485 2.485 2.485 0 0 0 2.379 2.483 20.93 20.93 0 0 1 .969 4.974z" fill="#6A6577"/><path d="M29.54 15.261c-2.919 6.17-10.262 8.825-16.445 5.965-6.229-2.88-8.954-10.394-6.018-16.598.305-.645.659-1.252 1.055-1.818.371-.531-.25-1.187-.797-.84A15.694 15.694 0 0 0 1.51 8.577a15.746 15.746 0 0 0 7.524 20.968c7.872 3.726 17.273.364 20.998-7.509a15.699 15.699 0 0 0 1.4-8.665c-.079-.641-.98-.7-1.155-.079a12.481 12.481 0 0 1-.736 1.968z" fill="#F9D368"/><path d="M23.318 37.052a2.486 2.486 0 0 1-2.486 2.486H11.13c-5.245-2.8-9.16-7.762-10.56-13.695a2.484 2.484 0 0 1 2.139-1.22h11.14c.687 0 1.307.278 1.757.728a2.486 2.486 0 0 1-1.757 4.244h-1.542a2.485 2.485 0 1 0 0 4.971h8.526c.687 0 1.308.278 1.758.728.45.45.728 1.071.728 1.758z" fill="#6A6577"/><path d="M23.276 3.843l.472.958a.24.24 0 0 0 .181.13l1.057.154a.24.24 0 0 1 .133.41l-.765.746a.24.24 0 0 0-.069.212l.18 1.053a.24.24 0 0 1-.347.253l-.946-.497a.24.24 0 0 0-.223 0l-.946.497a.24.24 0 0 1-.348-.253l.18-1.053a.24.24 0 0 0-.068-.212l-.765-.746a.24.24 0 0 1 .133-.41l1.057-.153a.24.24 0 0 0 .18-.131l.473-.958a.24.24 0 0 1 .43 0z" fill="#F9D368"/><path d="M40.905 27.709a21.054 21.054 0 0 1-8.63 11.01 2.48 2.48 0 0 0-2.04-1.067h-1.543a2.478 2.478 0 0 1-1.758-.729 2.485 2.485 0 0 1 1.758-4.243h1.542c.687 0 1.307-.278 1.757-.728.45-.45.728-1.072.728-1.757a2.485 2.485 0 0 1 2.486-2.486h5.7z" fill="#6A6577"/></svg>