<?xml version="1.0" encoding="utf-8"?><svg xmlns="http://www.w3.org/2000/svg" xmlns:xlink="http://www.w3.org/1999/xlink"><symbol viewBox="0 0 22 11" id="arrow" xmlns="http://www.w3.org/2000/svg"><path d="M11 9.575L1.063.173a.646.646 0 0 0-.88 0 .565.565 0 0 0 0 .834l10.377 9.82a.646.646 0 0 0 .881 0l10.374-9.82A.577.577 0 0 0 22 .592a.56.56 0 0 0-.184-.414.646.646 0 0 0-.881 0l-9.936 9.397z"/></symbol><symbol viewBox="0 0 412 61" id="bricks" xmlns="http://www.w3.org/2000/svg"><path d="M31.012.732H.366v12.72h30.646V.731zm34.425 0H34.791v12.72h30.646V.731zm34.845 0H69.635v12.72h30.647V.731zm34.425 0H104.06v12.72h30.647V.731zm34.425 0h-30.647v12.72h30.647V.731zm34.845 0H173.33v12.72h30.647V.731zm34.423 0h-30.646v12.72h30.647V.731zm34.846 0h-30.647v12.72h30.647V.731zm34.424 0h-30.646v12.72h30.647V.731zm34.426 0h-30.647v12.72h30.647V.731zm34.844 0h-30.646v12.72h30.646V.731zm34.425 0H380.72v12.72h30.646V.731zM48.224 16.631H17.577v12.72h30.647V16.63zm-34.424 0H.366v12.72H13.8V16.63zm69.269 0H52.422v12.72H83.07V16.63zm34.425 0H86.847v12.72h30.647V16.63zm34.426 0h-30.647v12.72h30.647V16.63zm34.844 0h-30.647v12.72h30.647V16.63zm34.425 0h-30.647v12.72h30.647V16.63zm34.425 0h-30.647v12.72h30.646V16.63zm34.845 0h-30.647v12.72h30.647V16.63zm34.425 0h-30.647v12.72h30.646V16.63zm34.845 0h-30.647v12.72h30.647V16.63zm34.425 0h-30.647v12.72h30.646V16.63zm17.212 0h-13.434v12.72h13.434V16.63zM31.012 32.113H.366v12.72h30.646v-12.72zm34.425 0H34.791v12.72h30.646v-12.72zm34.845 0H69.635v12.72h30.647v-12.72zm34.425 0H104.06v12.72h30.647v-12.72zm34.425 0h-30.647v12.72h30.647v-12.72zm34.845 0H173.33v12.72h30.647v-12.72zm34.423 0h-30.646v12.72h30.647v-12.72zm34.846 0h-30.647v12.72h30.647v-12.72zm34.424 0h-30.646v12.72h30.647v-12.72zm34.426 0h-30.647v12.72h30.647v-12.72zm34.844 0h-30.646v12.72h30.646v-12.72zm34.425 0H380.72v12.72h30.646v-12.72zM48.224 48.012H17.577v12.72h30.647v-12.72zm-34.424 0H.366v12.72H13.8v-12.72zm69.269 0H52.422v12.72H83.07v-12.72zm34.425 0H86.847v12.72h30.647v-12.72zm34.426 0h-30.647v12.72h30.647v-12.72zm34.844 0h-30.647v12.72h30.647v-12.72zm34.425 0h-30.647v12.72h30.647v-12.72zm34.425 0h-30.647v12.72h30.646v-12.72zm34.845 0h-30.647v12.72h30.647v-12.72zm34.425 0h-30.647v12.72h30.646v-12.72zm34.845 0h-30.647v12.72h30.647v-12.72zm34.425 0h-30.647v12.72h30.646v-12.72zm17.212 0h-13.434v12.72h13.434v-12.72z"/></symbol><symbol viewBox="0 0 19 19" id="close" xmlns="http://www.w3.org/2000/svg"><path d="M19 .864L18.137 0 9.5 8.636.864 0 0 .864 8.636 9.5 0 18.137.864 19 9.5 10.364 18.137 19l.863-.863L10.364 9.5 19 .864z"/></symbol></svg>