<svg width="52" height="45" fill="none" xmlns="http://www.w3.org/2000/svg"><path d="M31.297 8.259l-.83-1.349C27.803 2.584 23.147 0 18.011 0 9.986 0 3.458 6.396 3.458 14.258c0 4.486 2.207 8.765 5.906 11.446l.564.408.698.076c.458.05.895.138 1.297.266l4.307 1.355-.973-4.328a3.326 3.326 0 0 1 .705-2.892 3.487 3.487 0 0 1 2.678-1.237c.357 0 .71.054 1.02.15l2.332.762.907-2.238a3.453 3.453 0 0 1 3.635-2.12l3.034.36-.125-2.992-.018-.29c0-1.198.349-2.373 1.01-3.395l.862-1.33z" fill="#F0C419"/><path d="M51.977 18.68h-.07c.03.258.051.518.051.785 0 .47-.387.85-.866.85a.857.857 0 0 1-.867-.85c0-2.81-2.332-5.094-5.2-5.094-2.867 0-5.2 2.285-5.2 5.094 0 .47-.387.85-.866.85a.857.857 0 0 1-.867-.85c0-3.45 2.643-6.302 6.048-6.73-.196-4.279-3.8-7.704-8.214-7.704-4.43 0-8.043 3.447-8.217 7.746a7.035 7.035 0 0 1 2.061.833 6.762 6.762 0 0 1 3.1 4.22.85.85 0 0 1-.645 1.021.872.872 0 0 1-1.043-.632c-.657-2.735-3.466-4.437-6.252-3.792-2.791.643-4.528 3.391-3.871 6.126a.85.85 0 0 1-.844 1.042.865.865 0 0 1-.843-.654 6.609 6.609 0 0 1 .01-3.12 5.233 5.233 0 0 0-4.76 1.802 5.008 5.008 0 0 0-1.018 4.487c0 .01.006.019.006.03a5.054 5.054 0 0 0 1.72 2.654c.37.299.423.833.12 1.195a.873.873 0 0 1-.67.31.871.871 0 0 1-.55-.194 6.736 6.736 0 0 1-2.207-3.21c-3.504-.895-7.188.549-9.091 3.618a7.874 7.874 0 0 0-.962 6.1c.522 2.094 1.843 3.863 3.723 4.982.41.244.539.765.29 1.167a.869.869 0 0 1-.74.407.877.877 0 0 1-.34-.077 10.053 10.053 0 0 0 4.63 1.352l7.115.003c4.6-.072 8.539-2.853 10.218-6.786 1.701 3.985 5.723 6.793 10.4 6.793 8.123 0 14.732-6.475 14.732-14.434v-8.49l-.02-.85z" fill="#D0E8F9"/><path d="M45.874 12.792c-.2-5.212-4.58-9.395-9.947-9.395-5.323 0-9.672 4.113-9.94 9.263-.484.01-.97.066-1.453.178a6.894 6.894 0 0 0-4.531 3.44c-2.498-.497-5.068.367-6.717 2.328a6.655 6.655 0 0 0-1.568 4.55c-4.013-.708-8.094 1.04-10.264 4.537a9.53 9.53 0 0 0-1.166 7.385c.63 2.534 2.232 4.675 4.506 6.03.14.084.297.124.45.124a.87.87 0 0 0 .741-.408.839.839 0 0 0-.29-1.166c-1.88-1.12-3.202-2.888-3.723-4.981a7.874 7.874 0 0 1 .962-6.1c1.903-3.07 5.587-4.513 9.09-3.62a6.739 6.739 0 0 0 2.207 3.21.877.877 0 0 0 1.22-.115.838.838 0 0 0-.119-1.195 5.046 5.046 0 0 1-1.72-2.655c0-.01-.006-.019-.007-.029a5.009 5.009 0 0 1 1.019-4.487 5.233 5.233 0 0 1 4.76-1.802 6.6 6.6 0 0 0-.01 3.12.864.864 0 0 0 1.041.632.849.849 0 0 0 .646-1.02c-.657-2.735 1.08-5.483 3.871-6.126 2.786-.645 5.595 1.057 6.252 3.792a.872.872 0 0 0 1.042.632.85.85 0 0 0 .645-1.021 6.761 6.761 0 0 0-3.099-4.22 7.013 7.013 0 0 0-2.06-.833c.173-4.299 3.786-7.746 8.216-7.746 4.414 0 8.019 3.424 8.214 7.704-3.406.428-6.048 3.28-6.048 6.73 0 .47.388.849.867.849.48 0 .867-.38.867-.85 0-2.809 2.331-5.093 5.2-5.093 2.867 0 5.239 2.284 5.239 5.094v2.547c0 .469.388.85.866.85a.859.859 0 0 0 .867-.85v-2.547c-.002-3.463-2.703-6.325-6.126-6.736z" fill="#ABCADD"/><path d="M41.599 30.566c.478 0 .866-.38.866-.849v-.424c0-2.107 1.75-3.82 3.9-3.82s3.9 1.713 3.9 3.82c0 .47.388.849.867.849.478 0 .866-.38.866-.85 0-3.042-2.527-5.518-5.633-5.518-2.96 0-5.41 2.25-5.633 5.094v.85c0 .468.388.848.867.848z" fill="#ABCADD"/><path d="M25.387 35.91l-2.6 2.546a.836.836 0 0 0 0 1.2.874.874 0 0 0 1.225 0l2.6-2.546a.836.836 0 0 0 0-1.2.878.878 0 0 0-1.225 0zm-5.2 5.094l-2.6 2.547a.836.836 0 0 0 0 1.2c.17.166.391.249.613.249a.874.874 0 0 0 .613-.249l2.6-2.547a.836.836 0 0 0 0-1.2.878.878 0 0 0-1.226 0zm18.558-10.189a.878.878 0 0 0-1.226 0l-2.6 2.547a.836.836 0 0 0 0 1.2.873.873 0 0 0 1.225 0l2.6-2.546a.836.836 0 0 0 0-1.2zM32.32 35.91l-2.6 2.546a.836.836 0 0 0 0 1.2.873.873 0 0 0 1.225 0l2.6-2.546a.836.836 0 0 0 0-1.2.878.878 0 0 0-1.225 0zm-7.441-5.095a.878.878 0 0 0-1.225 0l-2.6 2.547a.836.836 0 0 0 0 1.2.874.874 0 0 0 1.225 0l2.6-2.546a.836.836 0 0 0 0-1.2zm6.933 0a.878.878 0 0 0-1.226 0l-2.6 2.547a.836.836 0 0 0 0 1.2.873.873 0 0 0 1.225 0l2.6-2.546a.836.836 0 0 0 0-1.2zM19.68 35.91a.878.878 0 0 0-1.226 0l-2.6 2.546a.836.836 0 0 0 0 1.2.874.874 0 0 0 1.225 0l2.6-2.546a.836.836 0 0 0 0-1.2z" fill="#ABC5D3"/></svg>